<svg width="106" height="60" viewBox="0 0 106 60" fill="none" xmlns="http://www.w3.org/2000/svg">
<path d="M0 29.584C2.46385 32.0467 4.96932 34.4683 7.5251 36.831C8.52738 37.7615 9.54169 38.6797 10.564 39.5896C16.6539 45.3651 23.0684 49.874 30.4412 53.6164C31.6479 54.2148 32.8627 54.7764 34.0975 55.2888C34.9194 55.6331 35.7493 55.9569 36.5872 56.2602C37.4251 56.5635 38.271 56.8464 39.1209 57.1046C42.8013 58.0884 46.7422 58.777 50.7554 59.0598C52.0944 59.1541 53.4375 59.2033 54.7845 59.2033C66.6755 58.9943 80.3065 55.7151 85.9193 44.2379C91.933 31.1211 79.9056 19.234 69.0008 13.9955C67.9224 13.475 66.8319 12.9995 65.7254 12.5732C62.4098 11.2943 58.9821 10.4376 55.5663 10.081C54.1992 9.91703 52.8281 9.81865 51.4529 9.78176C47.3316 9.67929 43.1982 10.163 39.2131 11.2779C36.8918 11.9255 33.5843 12.3108 33.0231 9.69158C32.7304 8.33482 33.432 6.94116 34.6427 6.30582C47.083 -0.248468 62.8348 0.505749 74.6817 8.07248C78.0614 10.2327 81.0963 12.9257 83.6982 16.0081C84.5642 17.037 85.3861 18.1068 86.1518 19.2135C89.5275 24.9808 92.7348 31.1293 93.4524 37.9418C93.6328 39.2863 93.7451 40.639 93.7892 41.9957L105.624 29.6824C96.9764 19.3447 86.9216 9.84735 74.7218 4.41209C61.8325 -1.3306 46.2171 -2.01513 34.1817 5.64178C32.8667 6.47798 31.9206 7.85934 31.7041 9.42925C31.4314 11.4378 32.4538 12.7412 33.865 13.393L33.889 13.4053C35.0436 13.9873 36.3747 14.0324 37.5774 13.5651C44.9822 10.6835 53.4856 9.74487 60.8503 12.3026C61.9528 12.6879 63.0313 13.147 64.0736 13.6922C75.8965 20.062 80.3065 35.6382 72.2883 47.5253C72.2522 47.5827 72.2161 47.6359 72.1801 47.6933C70.5363 50.165 66.864 49.7879 65.6893 47.0539C62.8869 40.5242 63.1996 32.9083 66.0501 26.6327L68.8432 20.4905C68.9467 20.2629 68.7235 20.0236 68.496 20.1183L62.3617 22.6731C61.3194 23.1076 60.2409 23.4683 59.1424 23.7552C58.0439 24.0422 56.9214 24.2512 55.7908 24.3824C54.4999 24.5545 53.241 24.5955 52.0102 24.5176C50.7794 24.4439 49.5767 24.2512 48.402 23.9643C41.1054 22.0296 31.7121 15.1105 26.2196 10.6753C23.5776 8.53977 19.785 8.78981 17.4356 11.2574L0 29.584ZM30.8904 49.436C29.8119 48.4687 28.7936 47.4439 27.8475 46.3618C26.9575 45.3043 26.1356 44.1934 25.3859 43.0416C25.2215 42.7875 25.0571 42.5333 24.9008 42.2751C24.4437 41.5373 24.0148 40.7872 23.6058 40.0248C23.1889 39.2459 22.796 38.4548 22.4231 37.6514C22.0463 36.8357 21.6975 36.0077 21.3688 35.1715C21.04 34.3231 20.7313 33.4664 20.4547 32.6015C20.174 31.7284 19.9175 30.8471 19.6889 29.9576C19.4604 29.0641 19.26 28.1623 19.0876 27.2564C18.9152 26.3464 18.7708 25.4323 18.6586 24.5101C18.5463 23.5919 18.4621 22.6655 18.414 21.7392C18.3659 20.8128 18.3459 19.8864 18.3619 18.96C18.378 18.0337 18.4301 17.1073 18.5183 16.185C18.6065 15.2587 18.7388 14.3364 18.8951 13.4182C19.4845 11.0449 22.4352 10.3153 24.0148 12.1557C29.5754 18.6362 35.9298 24.3584 38.7042 32.4621C39.0048 33.6385 39.2173 34.8395 39.3135 36.0733C39.4098 37.3071 39.3937 38.5737 39.2454 39.8813C39.085 41.0085 38.8445 42.1275 38.5278 43.222C38.211 44.3164 37.8141 45.3944 37.337 46.4397L36.1143 49.1245C35.3044 50.9117 33.0313 51.4117 31.592 50.1001C31.3555 49.8828 31.1229 49.6656 30.8944 49.4401L30.8904 49.436ZM54.3956 57.5719C53.0686 57.6088 51.7296 57.5514 50.3865 57.3956C47.6002 57.08 44.8179 56.3627 42.1719 55.2929C39.7664 54.3214 39.7824 50.825 42.1759 49.8289L42.2921 49.7797C48.5584 47.1687 55.7267 47.4925 61.9688 50.6733C64.2019 51.8087 64.0817 55.1453 61.7524 56.0594C59.4231 56.9735 56.9174 57.4981 54.3916 57.5719H54.3956Z" fill="#9DC3C6"/>
</svg>
