<svg width="301" height="102" viewBox="0 0 301 102" fill="none" xmlns="http://www.w3.org/2000/svg">
<mask id="path-1-outside-1_453_554" maskUnits="userSpaceOnUse" x="-0.263428" y="-0.87207" width="301" height="103" fill="black">
<rect fill="white" x="-0.263428" y="-0.87207" width="301" height="103"/>
<path d="M19.7366 47.1393C22.2004 49.602 24.7059 52.0236 27.2617 54.3863C28.264 55.3168 29.2783 56.235 30.3006 57.1449C36.3904 62.9204 42.805 67.4293 50.1778 71.1717C51.3845 71.7701 52.5993 72.3317 53.8341 72.8441C54.6559 73.1884 55.4858 73.5122 56.3237 73.8155C57.1616 74.1189 58.0076 74.4017 58.8575 74.6599C62.5379 75.6437 66.4788 76.3323 70.4919 76.6151C71.831 76.7094 73.174 76.7586 74.5211 76.7586C86.4121 76.5496 100.043 73.2704 105.656 61.7932C111.67 48.6764 99.6422 36.7893 88.7374 31.5508C87.659 31.0303 86.5685 30.5548 85.462 30.1285C82.1464 28.8496 78.7186 27.9929 75.3029 27.6363C73.9358 27.4723 72.5646 27.374 71.1895 27.3371C67.0682 27.2346 62.9348 27.7183 58.9497 28.8332C56.6284 29.4808 53.3209 29.8661 52.7596 27.2469C52.467 25.8901 53.1686 24.4965 54.3793 23.8611C66.8196 17.3068 82.5714 18.0611 94.4183 25.6278C97.798 27.788 100.833 30.481 103.435 33.5634C104.301 34.5923 105.123 35.6621 105.888 36.7688C109.264 42.5361 112.197 46.0928 112.914 52.9054C114.006 61.0365 117.287 50.1568 125.361 47.2377C116.713 36.9 106.658 27.4027 94.4584 21.9674C81.5691 16.2247 65.9536 15.5402 53.9183 23.1971C52.6033 24.0333 51.6571 25.4146 51.4406 26.9846C51.168 28.9931 52.1903 30.2965 53.6015 30.9483L53.6256 30.9606C54.7802 31.5426 56.1113 31.5877 57.314 31.1204C64.7188 28.2388 73.2221 27.3002 80.5869 29.858C81.6894 30.2433 82.7678 30.7023 83.8102 31.2475C95.6331 37.6173 100.043 53.1935 92.0249 65.0806C91.9888 65.138 91.9527 65.1913 91.9166 65.2486C90.2729 67.7203 86.6006 67.3432 85.4259 64.6092C82.6235 58.0795 82.9362 50.4636 85.7867 44.188L88.5798 38.0458C88.6833 37.8182 88.46 37.5789 88.2325 37.6737L82.0983 40.2284C81.0559 40.6629 79.9775 41.0236 78.879 41.3105C77.7805 41.5975 76.6579 41.8065 75.5274 41.9377C74.2364 42.1098 72.9776 42.1508 71.7468 42.0729C70.516 41.9992 69.3133 41.8065 68.1386 41.5196C60.842 39.5849 51.4487 32.6658 45.9562 28.2306C43.3142 26.0951 39.5215 26.3451 37.1722 28.8127L19.7366 47.1393ZM50.627 66.9913C49.5485 66.024 48.5302 64.9992 47.584 63.9171C46.694 62.8596 45.8722 61.7487 45.1225 60.5969C44.9581 60.3428 44.7937 60.0886 44.6373 59.8304C44.1803 59.0926 43.7513 58.3425 43.3424 57.5801C42.9255 56.8013 42.5326 56.0102 42.1597 55.2067C41.7829 54.391 41.4341 53.5631 41.1053 52.7269C40.7766 51.8784 40.4679 51.0217 40.1912 50.1568C39.9106 49.2837 39.654 48.4024 39.4255 47.5129C39.197 46.6194 38.9965 45.7176 38.8241 44.8117C38.6517 43.9017 38.5074 42.9877 38.3952 42.0654C38.2829 41.1472 38.1987 40.2208 38.1506 39.2945C38.1025 38.3681 38.0825 37.4417 38.0985 36.5153C38.1145 35.589 38.1666 34.6626 38.2548 33.7403C38.343 32.814 38.4753 31.8917 38.6317 30.9735C39.221 28.6002 42.1717 27.8706 43.7513 29.711C49.312 36.1915 55.6664 41.9137 58.4407 50.0174C58.7414 51.1938 58.9539 52.3948 59.0501 53.6286C59.1463 54.8624 59.1303 56.129 58.982 57.4366C58.8216 58.5638 58.581 59.6828 58.2643 60.7773C57.9476 61.8717 57.5507 62.9497 57.0736 63.995L55.8508 66.6798C55.041 68.467 52.7678 68.9671 51.3286 67.6554C51.092 67.4381 50.8595 67.2209 50.631 66.9954L50.627 66.9913ZM74.1322 75.1272C72.8052 75.1641 71.4661 75.1067 70.1231 74.951C67.3368 74.6353 64.5544 73.918 61.9084 72.8482C59.503 71.8767 59.519 68.3803 61.9124 67.3842L62.0287 67.335C68.2949 64.724 75.4632 65.0478 81.7054 68.2286C83.9385 69.364 83.8182 72.7006 81.4889 73.6147C79.1596 74.5288 76.6539 75.0534 74.1282 75.1272H74.1322Z"/>
<path d="M138.505 41.5037C135.144 41.5037 131.54 40.4988 130.881 38.3849C130.674 37.7612 130.5 36.8602 130.5 35.6474C130.5 33.9494 130.881 32.8405 131.852 32.8405C132.614 32.8405 134.035 34.7117 135.04 36.1672C136.565 38.3849 137.812 39.078 139.441 39.078C141.659 39.078 143.287 37.8305 143.287 35.682C143.287 33.7415 141.97 32.2514 140.411 30.8306L138.817 29.3752C136.946 27.6772 135.04 25.3901 135.04 22.306C135.04 17.8704 139.545 14.821 144.465 14.821C149.837 14.821 151.327 16.7269 151.327 20.3308C151.327 21.4397 150.98 22.2714 150.183 22.2714C149.213 22.2714 148.035 20.8852 147.238 19.8457C146.441 18.8061 145.089 17.2467 143.218 17.2467C141.277 17.2467 139.891 18.4942 139.891 20.1575C139.891 21.7862 141.589 23.7268 143.218 25.2515L144.708 26.6723C147.134 28.994 148.589 30.9692 148.589 33.4989C148.589 37.6919 144.916 41.5037 138.505 41.5037Z"/>
<path d="M154.161 41.5037C151.805 41.5037 149.934 39.7364 149.934 36.3058C149.934 30.9692 154.543 24.5238 160.849 24.5238C163.518 24.5238 165.562 25.6673 165.562 27.6425C165.562 28.3356 165.32 29.1673 165.042 29.9989C164.419 32.0088 163.76 34.1919 164.523 35.4741C164.731 35.8206 165.077 36.1672 165.666 36.4444C166.186 36.6869 166.463 36.9295 166.463 37.3107C166.463 38.5929 164.037 41.5037 161.716 41.5037C159.325 41.5037 160.399 39.078 159.255 39.078C158.077 39.078 156.934 41.5037 154.161 41.5037ZM156.518 37.9345C159.221 37.9345 161.196 32.5286 161.196 29.1673C161.196 27.7812 160.78 26.7762 159.567 26.7762C156.899 26.7762 154.993 31.8702 154.993 35.4394C154.993 36.7909 155.27 37.9345 156.518 37.9345Z"/>
<path d="M168.929 41.5037C167.682 41.5037 166.954 40.5334 166.954 38.8354C166.954 33.4642 171.216 27.9198 171.216 20.5734C171.216 17.5586 169.969 16.7269 169.969 15.9645C169.969 14.9596 172.152 14.1279 173.885 14.1279C175.825 14.1279 176.795 15.1675 176.795 16.5883C176.795 21.1971 172.291 26.8109 172.291 31.9742C172.291 35.2662 174.335 36.2365 174.335 37.0681C174.335 38.7661 170.87 41.5037 168.929 41.5037Z"/>
<path d="M177.153 41.5037C175.871 41.5037 174.936 40.6027 174.936 39.3206C174.936 36.479 178.158 35.4394 178.158 31.8355C178.158 30.0336 177.292 28.2316 176.738 27.0881C176.668 26.9495 176.599 26.8109 176.599 26.6723C176.599 25.5287 179.059 24.5238 180.896 24.5238C183.183 24.5238 182.282 26.4644 184.084 26.4644C185.99 26.4644 186.475 24.5238 188.901 24.5238C191.049 24.5238 191.049 26.4297 192.47 26.4297C193.821 26.4297 194.618 24.5238 196.732 24.5238C198.465 24.5238 199.504 25.5287 199.504 26.9495C199.504 29.3059 197.91 30.4494 197.91 32.6672C197.91 35.786 199.678 36.0979 199.678 36.9295C199.678 38.6275 196.004 41.5037 193.925 41.5037C192.643 41.5037 191.881 40.672 191.881 39.2859C191.881 36.8602 194.722 34.8157 194.722 30.8653C194.722 29.3752 193.925 28.4049 192.539 28.4049C190.876 28.4049 189.628 30.3801 189.628 32.6672C189.628 35.786 191.049 36.0979 191.049 36.9295C191.049 38.6275 187.584 41.5037 185.609 41.5037C184.119 41.5037 183.564 40.672 183.564 39.2859C183.564 36.8602 186.406 34.8157 186.406 30.8653C186.406 29.3752 185.539 28.4396 184.326 28.4396C182.455 28.4396 181.312 30.5187 181.312 33.0137C181.312 35.7167 182.628 36.0979 182.628 36.9295C182.628 38.6275 179.233 41.5037 177.153 41.5037Z"/>
<path d="M205.058 41.5037C202.701 41.5037 200.83 39.7364 200.83 36.3058C200.83 30.9692 205.439 24.5238 211.746 24.5238C214.414 24.5238 216.459 25.6673 216.459 27.6425C216.459 28.3356 216.216 29.1673 215.939 29.9989C215.315 32.0088 214.657 34.1919 215.419 35.4741C215.627 35.8206 215.973 36.1672 216.563 36.4444C217.082 36.6869 217.36 36.9295 217.36 37.3107C217.36 38.5929 214.934 41.5037 212.612 41.5037C210.221 41.5037 211.295 39.078 210.152 39.078C208.974 39.078 207.83 41.5037 205.058 41.5037ZM207.414 37.9345C210.117 37.9345 212.092 32.5286 212.092 29.1673C212.092 27.7812 211.677 26.7762 210.464 26.7762C207.795 26.7762 205.889 31.8702 205.889 35.4394C205.889 36.7909 206.167 37.9345 207.414 37.9345Z"/>
<path d="M138.99 79.5037C136.426 79.5037 132.995 79.3304 131.713 78.9492C130.881 78.7067 130.362 78.2908 130.362 77.9097C130.362 77.3899 131.401 76.2117 132.025 75.1028C133.966 71.7068 135.906 62.3505 135.906 58.4694C135.906 55.8011 135.109 55.0388 135.109 54.415C135.109 52.8556 139.961 52.821 142.144 52.821C146.371 52.821 148.589 52.8903 149.837 53.4101C151.431 54.1031 151.604 56.2863 151.604 57.7417C151.604 59.0585 151.119 60.2367 150.426 60.2367C149.802 60.2367 149.317 59.5436 148.658 58.5734C146.926 56.0091 146.094 55.0388 144.361 55.0388C141.589 55.0388 140.48 57.6031 140.48 60.202C140.48 62.6278 141.416 64.6723 143.53 64.6723C144.569 64.6723 145.505 64.0832 146.233 62.7317C146.787 61.6921 146.96 61.4149 147.515 61.4149C148.45 61.4149 148.866 63.2515 148.866 65.7119C148.866 68.5187 148.624 69.7662 147.688 69.7662C147.203 69.7662 146.891 69.2811 146.337 68.4148C145.748 67.5138 144.881 66.8901 143.322 66.8901C140.03 66.8901 138.366 69.9049 138.366 73.1969C138.366 75.5879 139.441 77.182 141.624 77.182C142.871 77.182 144.223 76.6622 146.406 73.4741C147.203 72.2959 147.931 71.4989 148.554 71.4989C149.213 71.4989 149.594 72.3306 149.594 73.5781C149.594 75.7612 148.901 78.0136 147.238 78.9146C146.233 79.4344 143.911 79.5037 138.99 79.5037Z"/>
<path d="M152.956 79.5037C151.709 79.5037 150.981 78.5334 150.981 76.8354C150.981 71.4642 155.244 65.9198 155.244 58.5734C155.244 55.5586 153.996 54.7269 153.996 53.9645C153.996 52.9596 156.179 52.1279 157.912 52.1279C159.852 52.1279 160.823 53.1675 160.823 54.5883C160.823 59.1971 156.318 64.8109 156.318 69.9742C156.318 73.2662 158.362 74.2365 158.362 75.0681C158.362 76.7661 154.897 79.5037 152.956 79.5037Z"/>
<path d="M188.152 83.5581C180.217 83.5581 167.395 78.5681 167.395 67.8603C167.395 59.7862 173.806 52.821 181.533 52.821C188.499 52.821 193.246 57.0833 193.246 63.1129C193.246 70.5633 187.32 74.2365 186.108 76.8701C185.865 77.3552 185.761 77.8404 185.761 78.2562C185.761 79.3997 186.593 80.2314 187.91 80.6126C189.919 81.2017 190.82 81.5136 190.82 82.3106C190.82 83.3502 189.954 83.5581 188.152 83.5581ZM178.969 77.2166C184.41 77.2166 187.182 70.286 187.182 63.3208C187.182 58.8506 186.038 55.4546 181.707 55.4546C176.162 55.4546 173.286 62.3159 173.286 69.3851C173.286 74.2711 174.915 77.2166 178.969 77.2166Z"/>
<path d="M199.184 79.5037C196.481 79.5037 193.05 78.5334 193.05 73.7167C193.05 68.8999 196.827 62.5238 203.238 62.5238C205.768 62.5238 209.233 63.4594 209.233 68.1722C209.233 72.3652 206.357 79.5037 199.184 79.5037ZM199.981 77.078C202.51 77.078 203.931 71.187 203.931 67.9296C203.931 66.197 203.55 64.9495 202.337 64.9495C199.807 64.9495 198.387 70.5286 198.387 73.9246C198.387 75.5186 198.664 77.078 199.981 77.078Z"/>
<path d="M211.773 79.5037C210.491 79.5037 209.555 78.6374 209.555 77.3899C209.555 74.4444 212.847 73.5087 212.847 69.7662C212.847 66.4742 211.496 65.7465 211.496 64.395C211.496 63.5287 213.783 62.5238 215.1 62.5238C217.006 62.5238 216.451 65.0535 217.283 65.0535C218.08 65.0535 218.669 62.7664 220.991 62.7664C222.481 62.7664 223.624 63.7713 223.624 65.2267C223.624 66.6821 222.516 67.9296 221.06 67.9296C219.778 67.9296 219.57 67.0287 218.427 67.0287C216.694 67.0287 216.07 69.2811 216.07 71.2563C216.07 73.8206 217.699 74.1672 217.699 75.1374C217.699 76.974 213.783 79.5037 211.773 79.5037Z"/>
<path d="M226.31 79.5037C223.953 79.5037 222.082 77.7364 222.082 74.3058C222.082 68.9692 226.691 62.5238 232.998 62.5238C235.666 62.5238 237.711 63.6673 237.711 65.6426C237.711 66.3356 237.468 67.1673 237.191 67.9989C236.567 70.0088 235.909 72.1919 236.671 73.4741C236.879 73.8206 237.225 74.1672 237.815 74.4444C238.334 74.6869 238.612 74.9295 238.612 75.3107C238.612 76.5929 236.186 79.5037 233.864 79.5037C231.473 79.5037 232.547 77.078 231.404 77.078C230.226 77.078 229.082 79.5037 226.31 79.5037ZM228.666 75.9345C231.369 75.9345 233.344 70.5286 233.344 67.1673C233.344 65.7812 232.928 64.7762 231.716 64.7762C229.047 64.7762 227.141 69.8702 227.141 73.4394C227.141 74.7909 227.419 75.9345 228.666 75.9345Z"/>
<path d="M244.531 79.5037C241.689 79.5037 239.09 78.2215 239.09 76.3156C239.09 75.2067 239.991 74.1325 241.343 74.1325C243.664 74.1325 243.491 77.4245 245.709 77.4245C246.679 77.4245 247.268 76.8008 247.268 76.0038C247.268 73.4741 241.135 72.1226 241.135 67.6871C241.135 64.5337 244.15 62.5238 247.927 62.5238C250.248 62.5238 252.813 63.2515 252.813 65.1921C252.813 66.3356 251.912 67.1673 250.699 67.1673C248.585 67.1673 248.897 64.6376 246.783 64.6376C245.709 64.6376 245.154 65.2267 245.154 65.9891C245.154 68.4494 251.6 69.5237 251.6 73.9939C251.6 77.1127 248.446 79.5037 244.531 79.5037Z"/>
<path d="M254.501 79.5037C253.253 79.5037 252.422 78.8799 252.422 76.974C252.422 74.1672 255.021 70.9098 256.199 67.3752C257.308 64.0832 257.966 58.7813 256.927 56.1823C256.442 54.9695 255.991 54.4497 255.991 53.9645C255.991 52.9596 258.174 52.1279 260.011 52.1279C261.951 52.1279 262.818 53.1675 262.818 54.4843C262.818 57.014 260.392 60.41 260.392 63.2515C260.392 64.1525 260.704 64.5337 261.536 64.5337C263.441 64.5337 264.377 62.5238 267.115 62.5238C268.778 62.5238 269.818 63.5287 269.818 64.9495C269.818 67.3059 268.224 68.4494 268.224 70.6672C268.224 73.786 269.991 74.0979 269.991 74.9295C269.991 76.6275 266.179 79.5037 264.1 79.5037C262.61 79.5037 261.882 78.672 261.882 77.2859C261.882 74.8602 264.897 72.8157 264.897 69.0385C264.897 67.3752 263.961 66.4396 262.436 66.4396C260.253 66.4396 258.486 68.4841 258.486 70.9098C258.486 73.6127 260.427 74.0979 260.427 74.9295C260.427 76.6275 256.58 79.5037 254.501 79.5037Z"/>
<path d="M268.575 87.1273C266.6 87.1273 264.763 86.0877 264.763 84.0779C264.763 82.7957 265.733 81.5829 267.362 81.5829C269.58 81.5829 269.753 83.5927 271.209 83.5927C273.357 83.5927 274.085 80.474 274.085 77.1473C274.085 73.0929 272.595 67.2366 271.694 65.0881C271.486 64.5683 271.278 64.0485 271.278 63.702C271.278 63.0089 272.456 62.5931 274.362 62.5931C276.164 62.5931 277.689 63.3208 277.689 65.5732C277.689 67.5831 277.377 70.4246 277.377 72.5038C277.377 74.3058 277.723 75.4147 278.763 75.4147C280.669 75.4147 281.639 72.5038 281.639 69.9742C281.639 67.5485 280.392 66.5089 280.392 65.0188C280.392 63.5634 281.674 62.5238 283.198 62.5238C284.688 62.5238 286.075 63.4941 286.075 65.5386C286.075 72.2612 279.005 81.5136 273.149 85.4986C271.624 86.5036 270.134 87.1273 268.575 87.1273Z"/>
</mask>
<path d="M19.7366 47.1393C22.2004 49.602 24.7059 52.0236 27.2617 54.3863C28.264 55.3168 29.2783 56.235 30.3006 57.1449C36.3904 62.9204 42.805 67.4293 50.1778 71.1717C51.3845 71.7701 52.5993 72.3317 53.8341 72.8441C54.6559 73.1884 55.4858 73.5122 56.3237 73.8155C57.1616 74.1189 58.0076 74.4017 58.8575 74.6599C62.5379 75.6437 66.4788 76.3323 70.4919 76.6151C71.831 76.7094 73.174 76.7586 74.5211 76.7586C86.4121 76.5496 100.043 73.2704 105.656 61.7932C111.67 48.6764 99.6422 36.7893 88.7374 31.5508C87.659 31.0303 86.5685 30.5548 85.462 30.1285C82.1464 28.8496 78.7186 27.9929 75.3029 27.6363C73.9358 27.4723 72.5646 27.374 71.1895 27.3371C67.0682 27.2346 62.9348 27.7183 58.9497 28.8332C56.6284 29.4808 53.3209 29.8661 52.7596 27.2469C52.467 25.8901 53.1686 24.4965 54.3793 23.8611C66.8196 17.3068 82.5714 18.0611 94.4183 25.6278C97.798 27.788 100.833 30.481 103.435 33.5634C104.301 34.5923 105.123 35.6621 105.888 36.7688C109.264 42.5361 112.197 46.0928 112.914 52.9054C114.006 61.0365 117.287 50.1568 125.361 47.2377C116.713 36.9 106.658 27.4027 94.4584 21.9674C81.5691 16.2247 65.9536 15.5402 53.9183 23.1971C52.6033 24.0333 51.6571 25.4146 51.4406 26.9846C51.168 28.9931 52.1903 30.2965 53.6015 30.9483L53.6256 30.9606C54.7802 31.5426 56.1113 31.5877 57.314 31.1204C64.7188 28.2388 73.2221 27.3002 80.5869 29.858C81.6894 30.2433 82.7678 30.7023 83.8102 31.2475C95.6331 37.6173 100.043 53.1935 92.0249 65.0806C91.9888 65.138 91.9527 65.1913 91.9166 65.2486C90.2729 67.7203 86.6006 67.3432 85.4259 64.6092C82.6235 58.0795 82.9362 50.4636 85.7867 44.188L88.5798 38.0458C88.6833 37.8182 88.46 37.5789 88.2325 37.6737L82.0983 40.2284C81.0559 40.6629 79.9775 41.0236 78.879 41.3105C77.7805 41.5975 76.6579 41.8065 75.5274 41.9377C74.2364 42.1098 72.9776 42.1508 71.7468 42.0729C70.516 41.9992 69.3133 41.8065 68.1386 41.5196C60.842 39.5849 51.4487 32.6658 45.9562 28.2306C43.3142 26.0951 39.5215 26.3451 37.1722 28.8127L19.7366 47.1393ZM50.627 66.9913C49.5485 66.024 48.5302 64.9992 47.584 63.9171C46.694 62.8596 45.8722 61.7487 45.1225 60.5969C44.9581 60.3428 44.7937 60.0886 44.6373 59.8304C44.1803 59.0926 43.7513 58.3425 43.3424 57.5801C42.9255 56.8013 42.5326 56.0102 42.1597 55.2067C41.7829 54.391 41.4341 53.5631 41.1053 52.7269C40.7766 51.8784 40.4679 51.0217 40.1912 50.1568C39.9106 49.2837 39.654 48.4024 39.4255 47.5129C39.197 46.6194 38.9965 45.7176 38.8241 44.8117C38.6517 43.9017 38.5074 42.9877 38.3952 42.0654C38.2829 41.1472 38.1987 40.2208 38.1506 39.2945C38.1025 38.3681 38.0825 37.4417 38.0985 36.5153C38.1145 35.589 38.1666 34.6626 38.2548 33.7403C38.343 32.814 38.4753 31.8917 38.6317 30.9735C39.221 28.6002 42.1717 27.8706 43.7513 29.711C49.312 36.1915 55.6664 41.9137 58.4407 50.0174C58.7414 51.1938 58.9539 52.3948 59.0501 53.6286C59.1463 54.8624 59.1303 56.129 58.982 57.4366C58.8216 58.5638 58.581 59.6828 58.2643 60.7773C57.9476 61.8717 57.5507 62.9497 57.0736 63.995L55.8508 66.6798C55.041 68.467 52.7678 68.9671 51.3286 67.6554C51.092 67.4381 50.8595 67.2209 50.631 66.9954L50.627 66.9913ZM74.1322 75.1272C72.8052 75.1641 71.4661 75.1067 70.1231 74.951C67.3368 74.6353 64.5544 73.918 61.9084 72.8482C59.503 71.8767 59.519 68.3803 61.9124 67.3842L62.0287 67.335C68.2949 64.724 75.4632 65.0478 81.7054 68.2286C83.9385 69.364 83.8182 72.7006 81.4889 73.6147C79.1596 74.5288 76.6539 75.0534 74.1282 75.1272H74.1322Z" fill="#9DC3C6"/>
<path d="M138.505 41.5037C135.144 41.5037 131.54 40.4988 130.881 38.3849C130.674 37.7612 130.5 36.8602 130.5 35.6474C130.5 33.9494 130.881 32.8405 131.852 32.8405C132.614 32.8405 134.035 34.7117 135.04 36.1672C136.565 38.3849 137.812 39.078 139.441 39.078C141.659 39.078 143.287 37.8305 143.287 35.682C143.287 33.7415 141.97 32.2514 140.411 30.8306L138.817 29.3752C136.946 27.6772 135.04 25.3901 135.04 22.306C135.04 17.8704 139.545 14.821 144.465 14.821C149.837 14.821 151.327 16.7269 151.327 20.3308C151.327 21.4397 150.98 22.2714 150.183 22.2714C149.213 22.2714 148.035 20.8852 147.238 19.8457C146.441 18.8061 145.089 17.2467 143.218 17.2467C141.277 17.2467 139.891 18.4942 139.891 20.1575C139.891 21.7862 141.589 23.7268 143.218 25.2515L144.708 26.6723C147.134 28.994 148.589 30.9692 148.589 33.4989C148.589 37.6919 144.916 41.5037 138.505 41.5037Z" fill="#9DC3C6"/>
<path d="M154.161 41.5037C151.805 41.5037 149.934 39.7364 149.934 36.3058C149.934 30.9692 154.543 24.5238 160.849 24.5238C163.518 24.5238 165.562 25.6673 165.562 27.6425C165.562 28.3356 165.32 29.1673 165.042 29.9989C164.419 32.0088 163.76 34.1919 164.523 35.4741C164.731 35.8206 165.077 36.1672 165.666 36.4444C166.186 36.6869 166.463 36.9295 166.463 37.3107C166.463 38.5929 164.037 41.5037 161.716 41.5037C159.325 41.5037 160.399 39.078 159.255 39.078C158.077 39.078 156.934 41.5037 154.161 41.5037ZM156.518 37.9345C159.221 37.9345 161.196 32.5286 161.196 29.1673C161.196 27.7812 160.78 26.7762 159.567 26.7762C156.899 26.7762 154.993 31.8702 154.993 35.4394C154.993 36.7909 155.27 37.9345 156.518 37.9345Z" fill="#9DC3C6"/>
<path d="M168.929 41.5037C167.682 41.5037 166.954 40.5334 166.954 38.8354C166.954 33.4642 171.216 27.9198 171.216 20.5734C171.216 17.5586 169.969 16.7269 169.969 15.9645C169.969 14.9596 172.152 14.1279 173.885 14.1279C175.825 14.1279 176.795 15.1675 176.795 16.5883C176.795 21.1971 172.291 26.8109 172.291 31.9742C172.291 35.2662 174.335 36.2365 174.335 37.0681C174.335 38.7661 170.87 41.5037 168.929 41.5037Z" fill="#9DC3C6"/>
<path d="M177.153 41.5037C175.871 41.5037 174.936 40.6027 174.936 39.3206C174.936 36.479 178.158 35.4394 178.158 31.8355C178.158 30.0336 177.292 28.2316 176.738 27.0881C176.668 26.9495 176.599 26.8109 176.599 26.6723C176.599 25.5287 179.059 24.5238 180.896 24.5238C183.183 24.5238 182.282 26.4644 184.084 26.4644C185.99 26.4644 186.475 24.5238 188.901 24.5238C191.049 24.5238 191.049 26.4297 192.47 26.4297C193.821 26.4297 194.618 24.5238 196.732 24.5238C198.465 24.5238 199.504 25.5287 199.504 26.9495C199.504 29.3059 197.91 30.4494 197.91 32.6672C197.91 35.786 199.678 36.0979 199.678 36.9295C199.678 38.6275 196.004 41.5037 193.925 41.5037C192.643 41.5037 191.881 40.672 191.881 39.2859C191.881 36.8602 194.722 34.8157 194.722 30.8653C194.722 29.3752 193.925 28.4049 192.539 28.4049C190.876 28.4049 189.628 30.3801 189.628 32.6672C189.628 35.786 191.049 36.0979 191.049 36.9295C191.049 38.6275 187.584 41.5037 185.609 41.5037C184.119 41.5037 183.564 40.672 183.564 39.2859C183.564 36.8602 186.406 34.8157 186.406 30.8653C186.406 29.3752 185.539 28.4396 184.326 28.4396C182.455 28.4396 181.312 30.5187 181.312 33.0137C181.312 35.7167 182.628 36.0979 182.628 36.9295C182.628 38.6275 179.233 41.5037 177.153 41.5037Z" fill="#9DC3C6"/>
<path d="M205.058 41.5037C202.701 41.5037 200.83 39.7364 200.83 36.3058C200.83 30.9692 205.439 24.5238 211.746 24.5238C214.414 24.5238 216.459 25.6673 216.459 27.6425C216.459 28.3356 216.216 29.1673 215.939 29.9989C215.315 32.0088 214.657 34.1919 215.419 35.4741C215.627 35.8206 215.973 36.1672 216.563 36.4444C217.082 36.6869 217.36 36.9295 217.36 37.3107C217.36 38.5929 214.934 41.5037 212.612 41.5037C210.221 41.5037 211.295 39.078 210.152 39.078C208.974 39.078 207.83 41.5037 205.058 41.5037ZM207.414 37.9345C210.117 37.9345 212.092 32.5286 212.092 29.1673C212.092 27.7812 211.677 26.7762 210.464 26.7762C207.795 26.7762 205.889 31.8702 205.889 35.4394C205.889 36.7909 206.167 37.9345 207.414 37.9345Z" fill="#9DC3C6"/>
<path d="M138.99 79.5037C136.426 79.5037 132.995 79.3304 131.713 78.9492C130.881 78.7067 130.362 78.2908 130.362 77.9097C130.362 77.3899 131.401 76.2117 132.025 75.1028C133.966 71.7068 135.906 62.3505 135.906 58.4694C135.906 55.8011 135.109 55.0388 135.109 54.415C135.109 52.8556 139.961 52.821 142.144 52.821C146.371 52.821 148.589 52.8903 149.837 53.4101C151.431 54.1031 151.604 56.2863 151.604 57.7417C151.604 59.0585 151.119 60.2367 150.426 60.2367C149.802 60.2367 149.317 59.5436 148.658 58.5734C146.926 56.0091 146.094 55.0388 144.361 55.0388C141.589 55.0388 140.48 57.6031 140.48 60.202C140.48 62.6278 141.416 64.6723 143.53 64.6723C144.569 64.6723 145.505 64.0832 146.233 62.7317C146.787 61.6921 146.96 61.4149 147.515 61.4149C148.45 61.4149 148.866 63.2515 148.866 65.7119C148.866 68.5187 148.624 69.7662 147.688 69.7662C147.203 69.7662 146.891 69.2811 146.337 68.4148C145.748 67.5138 144.881 66.8901 143.322 66.8901C140.03 66.8901 138.366 69.9049 138.366 73.1969C138.366 75.5879 139.441 77.182 141.624 77.182C142.871 77.182 144.223 76.6622 146.406 73.4741C147.203 72.2959 147.931 71.4989 148.554 71.4989C149.213 71.4989 149.594 72.3306 149.594 73.5781C149.594 75.7612 148.901 78.0136 147.238 78.9146C146.233 79.4344 143.911 79.5037 138.99 79.5037Z" fill="#9DC3C6"/>
<path d="M152.956 79.5037C151.709 79.5037 150.981 78.5334 150.981 76.8354C150.981 71.4642 155.244 65.9198 155.244 58.5734C155.244 55.5586 153.996 54.7269 153.996 53.9645C153.996 52.9596 156.179 52.1279 157.912 52.1279C159.852 52.1279 160.823 53.1675 160.823 54.5883C160.823 59.1971 156.318 64.8109 156.318 69.9742C156.318 73.2662 158.362 74.2365 158.362 75.0681C158.362 76.7661 154.897 79.5037 152.956 79.5037Z" fill="#9DC3C6"/>
<path d="M188.152 83.5581C180.217 83.5581 167.395 78.5681 167.395 67.8603C167.395 59.7862 173.806 52.821 181.533 52.821C188.499 52.821 193.246 57.0833 193.246 63.1129C193.246 70.5633 187.32 74.2365 186.108 76.8701C185.865 77.3552 185.761 77.8404 185.761 78.2562C185.761 79.3997 186.593 80.2314 187.91 80.6126C189.919 81.2017 190.82 81.5136 190.82 82.3106C190.82 83.3502 189.954 83.5581 188.152 83.5581ZM178.969 77.2166C184.41 77.2166 187.182 70.286 187.182 63.3208C187.182 58.8506 186.038 55.4546 181.707 55.4546C176.162 55.4546 173.286 62.3159 173.286 69.3851C173.286 74.2711 174.915 77.2166 178.969 77.2166Z" fill="#9DC3C6"/>
<path d="M199.184 79.5037C196.481 79.5037 193.05 78.5334 193.05 73.7167C193.05 68.8999 196.827 62.5238 203.238 62.5238C205.768 62.5238 209.233 63.4594 209.233 68.1722C209.233 72.3652 206.357 79.5037 199.184 79.5037ZM199.981 77.078C202.51 77.078 203.931 71.187 203.931 67.9296C203.931 66.197 203.55 64.9495 202.337 64.9495C199.807 64.9495 198.387 70.5286 198.387 73.9246C198.387 75.5186 198.664 77.078 199.981 77.078Z" fill="#9DC3C6"/>
<path d="M211.773 79.5037C210.491 79.5037 209.555 78.6374 209.555 77.3899C209.555 74.4444 212.847 73.5087 212.847 69.7662C212.847 66.4742 211.496 65.7465 211.496 64.395C211.496 63.5287 213.783 62.5238 215.1 62.5238C217.006 62.5238 216.451 65.0535 217.283 65.0535C218.08 65.0535 218.669 62.7664 220.991 62.7664C222.481 62.7664 223.624 63.7713 223.624 65.2267C223.624 66.6821 222.516 67.9296 221.06 67.9296C219.778 67.9296 219.57 67.0287 218.427 67.0287C216.694 67.0287 216.07 69.2811 216.07 71.2563C216.07 73.8206 217.699 74.1672 217.699 75.1374C217.699 76.974 213.783 79.5037 211.773 79.5037Z" fill="#9DC3C6"/>
<path d="M226.31 79.5037C223.953 79.5037 222.082 77.7364 222.082 74.3058C222.082 68.9692 226.691 62.5238 232.998 62.5238C235.666 62.5238 237.711 63.6673 237.711 65.6426C237.711 66.3356 237.468 67.1673 237.191 67.9989C236.567 70.0088 235.909 72.1919 236.671 73.4741C236.879 73.8206 237.225 74.1672 237.815 74.4444C238.334 74.6869 238.612 74.9295 238.612 75.3107C238.612 76.5929 236.186 79.5037 233.864 79.5037C231.473 79.5037 232.547 77.078 231.404 77.078C230.226 77.078 229.082 79.5037 226.31 79.5037ZM228.666 75.9345C231.369 75.9345 233.344 70.5286 233.344 67.1673C233.344 65.7812 232.928 64.7762 231.716 64.7762C229.047 64.7762 227.141 69.8702 227.141 73.4394C227.141 74.7909 227.419 75.9345 228.666 75.9345Z" fill="#9DC3C6"/>
<path d="M244.531 79.5037C241.689 79.5037 239.09 78.2215 239.09 76.3156C239.09 75.2067 239.991 74.1325 241.343 74.1325C243.664 74.1325 243.491 77.4245 245.709 77.4245C246.679 77.4245 247.268 76.8008 247.268 76.0038C247.268 73.4741 241.135 72.1226 241.135 67.6871C241.135 64.5337 244.15 62.5238 247.927 62.5238C250.248 62.5238 252.813 63.2515 252.813 65.1921C252.813 66.3356 251.912 67.1673 250.699 67.1673C248.585 67.1673 248.897 64.6376 246.783 64.6376C245.709 64.6376 245.154 65.2267 245.154 65.9891C245.154 68.4494 251.6 69.5237 251.6 73.9939C251.6 77.1127 248.446 79.5037 244.531 79.5037Z" fill="#9DC3C6"/>
<path d="M254.501 79.5037C253.253 79.5037 252.422 78.8799 252.422 76.974C252.422 74.1672 255.021 70.9098 256.199 67.3752C257.308 64.0832 257.966 58.7813 256.927 56.1823C256.442 54.9695 255.991 54.4497 255.991 53.9645C255.991 52.9596 258.174 52.1279 260.011 52.1279C261.951 52.1279 262.818 53.1675 262.818 54.4843C262.818 57.014 260.392 60.41 260.392 63.2515C260.392 64.1525 260.704 64.5337 261.536 64.5337C263.441 64.5337 264.377 62.5238 267.115 62.5238C268.778 62.5238 269.818 63.5287 269.818 64.9495C269.818 67.3059 268.224 68.4494 268.224 70.6672C268.224 73.786 269.991 74.0979 269.991 74.9295C269.991 76.6275 266.179 79.5037 264.1 79.5037C262.61 79.5037 261.882 78.672 261.882 77.2859C261.882 74.8602 264.897 72.8157 264.897 69.0385C264.897 67.3752 263.961 66.4396 262.436 66.4396C260.253 66.4396 258.486 68.4841 258.486 70.9098C258.486 73.6127 260.427 74.0979 260.427 74.9295C260.427 76.6275 256.58 79.5037 254.501 79.5037Z" fill="#9DC3C6"/>
<path d="M268.575 87.1273C266.6 87.1273 264.763 86.0877 264.763 84.0779C264.763 82.7957 265.733 81.5829 267.362 81.5829C269.58 81.5829 269.753 83.5927 271.209 83.5927C273.357 83.5927 274.085 80.474 274.085 77.1473C274.085 73.0929 272.595 67.2366 271.694 65.0881C271.486 64.5683 271.278 64.0485 271.278 63.702C271.278 63.0089 272.456 62.5931 274.362 62.5931C276.164 62.5931 277.689 63.3208 277.689 65.5732C277.689 67.5831 277.377 70.4246 277.377 72.5038C277.377 74.3058 277.723 75.4147 278.763 75.4147C280.669 75.4147 281.639 72.5038 281.639 69.9742C281.639 67.5485 280.392 66.5089 280.392 65.0188C280.392 63.5634 281.674 62.5238 283.198 62.5238C284.688 62.5238 286.075 63.4941 286.075 65.5386C286.075 72.2612 279.005 81.5136 273.149 85.4986C271.624 86.5036 270.134 87.1273 268.575 87.1273Z" fill="#9DC3C6"/>
<path d="M19.7366 47.1393C22.2004 49.602 24.7059 52.0236 27.2617 54.3863C28.264 55.3168 29.2783 56.235 30.3006 57.1449C36.3904 62.9204 42.805 67.4293 50.1778 71.1717C51.3845 71.7701 52.5993 72.3317 53.8341 72.8441C54.6559 73.1884 55.4858 73.5122 56.3237 73.8155C57.1616 74.1189 58.0076 74.4017 58.8575 74.6599C62.5379 75.6437 66.4788 76.3323 70.4919 76.6151C71.831 76.7094 73.174 76.7586 74.5211 76.7586C86.4121 76.5496 100.043 73.2704 105.656 61.7932C111.67 48.6764 99.6422 36.7893 88.7374 31.5508C87.659 31.0303 86.5685 30.5548 85.462 30.1285C82.1464 28.8496 78.7186 27.9929 75.3029 27.6363C73.9358 27.4723 72.5646 27.374 71.1895 27.3371C67.0682 27.2346 62.9348 27.7183 58.9497 28.8332C56.6284 29.4808 53.3209 29.8661 52.7596 27.2469C52.467 25.8901 53.1686 24.4965 54.3793 23.8611C66.8196 17.3068 82.5714 18.0611 94.4183 25.6278C97.798 27.788 100.833 30.481 103.435 33.5634C104.301 34.5923 105.123 35.6621 105.888 36.7688C109.264 42.5361 112.197 46.0928 112.914 52.9054C114.006 61.0365 117.287 50.1568 125.361 47.2377C116.713 36.9 106.658 27.4027 94.4584 21.9674C81.5691 16.2247 65.9536 15.5402 53.9183 23.1971C52.6033 24.0333 51.6571 25.4146 51.4406 26.9846C51.168 28.9931 52.1903 30.2965 53.6015 30.9483L53.6256 30.9606C54.7802 31.5426 56.1113 31.5877 57.314 31.1204C64.7188 28.2388 73.2221 27.3002 80.5869 29.858C81.6894 30.2433 82.7678 30.7023 83.8102 31.2475C95.6331 37.6173 100.043 53.1935 92.0249 65.0806C91.9888 65.138 91.9527 65.1913 91.9166 65.2486C90.2729 67.7203 86.6006 67.3432 85.4259 64.6092C82.6235 58.0795 82.9362 50.4636 85.7867 44.188L88.5798 38.0458C88.6833 37.8182 88.46 37.5789 88.2325 37.6737L82.0983 40.2284C81.0559 40.6629 79.9775 41.0236 78.879 41.3105C77.7805 41.5975 76.6579 41.8065 75.5274 41.9377C74.2364 42.1098 72.9776 42.1508 71.7468 42.0729C70.516 41.9992 69.3133 41.8065 68.1386 41.5196C60.842 39.5849 51.4487 32.6658 45.9562 28.2306C43.3142 26.0951 39.5215 26.3451 37.1722 28.8127L19.7366 47.1393ZM50.627 66.9913C49.5485 66.024 48.5302 64.9992 47.584 63.9171C46.694 62.8596 45.8722 61.7487 45.1225 60.5969C44.9581 60.3428 44.7937 60.0886 44.6373 59.8304C44.1803 59.0926 43.7513 58.3425 43.3424 57.5801C42.9255 56.8013 42.5326 56.0102 42.1597 55.2067C41.7829 54.391 41.4341 53.5631 41.1053 52.7269C40.7766 51.8784 40.4679 51.0217 40.1912 50.1568C39.9106 49.2837 39.654 48.4024 39.4255 47.5129C39.197 46.6194 38.9965 45.7176 38.8241 44.8117C38.6517 43.9017 38.5074 42.9877 38.3952 42.0654C38.2829 41.1472 38.1987 40.2208 38.1506 39.2945C38.1025 38.3681 38.0825 37.4417 38.0985 36.5153C38.1145 35.589 38.1666 34.6626 38.2548 33.7403C38.343 32.814 38.4753 31.8917 38.6317 30.9735C39.221 28.6002 42.1717 27.8706 43.7513 29.711C49.312 36.1915 55.6664 41.9137 58.4407 50.0174C58.7414 51.1938 58.9539 52.3948 59.0501 53.6286C59.1463 54.8624 59.1303 56.129 58.982 57.4366C58.8216 58.5638 58.581 59.6828 58.2643 60.7773C57.9476 61.8717 57.5507 62.9497 57.0736 63.995L55.8508 66.6798C55.041 68.467 52.7678 68.9671 51.3286 67.6554C51.092 67.4381 50.8595 67.2209 50.631 66.9954L50.627 66.9913ZM74.1322 75.1272C72.8052 75.1641 71.4661 75.1067 70.1231 74.951C67.3368 74.6353 64.5544 73.918 61.9084 72.8482C59.503 71.8767 59.519 68.3803 61.9124 67.3842L62.0287 67.335C68.2949 64.724 75.4632 65.0478 81.7054 68.2286C83.9385 69.364 83.8182 72.7006 81.4889 73.6147C79.1596 74.5288 76.6539 75.0534 74.1282 75.1272H74.1322Z" stroke="#302219" stroke-width="28.2561" mask="url(#path-1-outside-1_453_554)"/>
<path d="M138.505 41.5037C135.144 41.5037 131.54 40.4988 130.881 38.3849C130.674 37.7612 130.5 36.8602 130.5 35.6474C130.5 33.9494 130.881 32.8405 131.852 32.8405C132.614 32.8405 134.035 34.7117 135.04 36.1672C136.565 38.3849 137.812 39.078 139.441 39.078C141.659 39.078 143.287 37.8305 143.287 35.682C143.287 33.7415 141.97 32.2514 140.411 30.8306L138.817 29.3752C136.946 27.6772 135.04 25.3901 135.04 22.306C135.04 17.8704 139.545 14.821 144.465 14.821C149.837 14.821 151.327 16.7269 151.327 20.3308C151.327 21.4397 150.98 22.2714 150.183 22.2714C149.213 22.2714 148.035 20.8852 147.238 19.8457C146.441 18.8061 145.089 17.2467 143.218 17.2467C141.277 17.2467 139.891 18.4942 139.891 20.1575C139.891 21.7862 141.589 23.7268 143.218 25.2515L144.708 26.6723C147.134 28.994 148.589 30.9692 148.589 33.4989C148.589 37.6919 144.916 41.5037 138.505 41.5037Z" stroke="#302219" stroke-width="28.2561" mask="url(#path-1-outside-1_453_554)"/>
<path d="M154.161 41.5037C151.805 41.5037 149.934 39.7364 149.934 36.3058C149.934 30.9692 154.543 24.5238 160.849 24.5238C163.518 24.5238 165.562 25.6673 165.562 27.6425C165.562 28.3356 165.32 29.1673 165.042 29.9989C164.419 32.0088 163.76 34.1919 164.523 35.4741C164.731 35.8206 165.077 36.1672 165.666 36.4444C166.186 36.6869 166.463 36.9295 166.463 37.3107C166.463 38.5929 164.037 41.5037 161.716 41.5037C159.325 41.5037 160.399 39.078 159.255 39.078C158.077 39.078 156.934 41.5037 154.161 41.5037ZM156.518 37.9345C159.221 37.9345 161.196 32.5286 161.196 29.1673C161.196 27.7812 160.78 26.7762 159.567 26.7762C156.899 26.7762 154.993 31.8702 154.993 35.4394C154.993 36.7909 155.27 37.9345 156.518 37.9345Z" stroke="#302219" stroke-width="28.2561" mask="url(#path-1-outside-1_453_554)"/>
<path d="M168.929 41.5037C167.682 41.5037 166.954 40.5334 166.954 38.8354C166.954 33.4642 171.216 27.9198 171.216 20.5734C171.216 17.5586 169.969 16.7269 169.969 15.9645C169.969 14.9596 172.152 14.1279 173.885 14.1279C175.825 14.1279 176.795 15.1675 176.795 16.5883C176.795 21.1971 172.291 26.8109 172.291 31.9742C172.291 35.2662 174.335 36.2365 174.335 37.0681C174.335 38.7661 170.87 41.5037 168.929 41.5037Z" stroke="#302219" stroke-width="28.2561" mask="url(#path-1-outside-1_453_554)"/>
<path d="M177.153 41.5037C175.871 41.5037 174.936 40.6027 174.936 39.3206C174.936 36.479 178.158 35.4394 178.158 31.8355C178.158 30.0336 177.292 28.2316 176.738 27.0881C176.668 26.9495 176.599 26.8109 176.599 26.6723C176.599 25.5287 179.059 24.5238 180.896 24.5238C183.183 24.5238 182.282 26.4644 184.084 26.4644C185.99 26.4644 186.475 24.5238 188.901 24.5238C191.049 24.5238 191.049 26.4297 192.47 26.4297C193.821 26.4297 194.618 24.5238 196.732 24.5238C198.465 24.5238 199.504 25.5287 199.504 26.9495C199.504 29.3059 197.91 30.4494 197.91 32.6672C197.91 35.786 199.678 36.0979 199.678 36.9295C199.678 38.6275 196.004 41.5037 193.925 41.5037C192.643 41.5037 191.881 40.672 191.881 39.2859C191.881 36.8602 194.722 34.8157 194.722 30.8653C194.722 29.3752 193.925 28.4049 192.539 28.4049C190.876 28.4049 189.628 30.3801 189.628 32.6672C189.628 35.786 191.049 36.0979 191.049 36.9295C191.049 38.6275 187.584 41.5037 185.609 41.5037C184.119 41.5037 183.564 40.672 183.564 39.2859C183.564 36.8602 186.406 34.8157 186.406 30.8653C186.406 29.3752 185.539 28.4396 184.326 28.4396C182.455 28.4396 181.312 30.5187 181.312 33.0137C181.312 35.7167 182.628 36.0979 182.628 36.9295C182.628 38.6275 179.233 41.5037 177.153 41.5037Z" stroke="#302219" stroke-width="28.2561" mask="url(#path-1-outside-1_453_554)"/>
<path d="M205.058 41.5037C202.701 41.5037 200.83 39.7364 200.83 36.3058C200.83 30.9692 205.439 24.5238 211.746 24.5238C214.414 24.5238 216.459 25.6673 216.459 27.6425C216.459 28.3356 216.216 29.1673 215.939 29.9989C215.315 32.0088 214.657 34.1919 215.419 35.4741C215.627 35.8206 215.973 36.1672 216.563 36.4444C217.082 36.6869 217.36 36.9295 217.36 37.3107C217.36 38.5929 214.934 41.5037 212.612 41.5037C210.221 41.5037 211.295 39.078 210.152 39.078C208.974 39.078 207.83 41.5037 205.058 41.5037ZM207.414 37.9345C210.117 37.9345 212.092 32.5286 212.092 29.1673C212.092 27.7812 211.677 26.7762 210.464 26.7762C207.795 26.7762 205.889 31.8702 205.889 35.4394C205.889 36.7909 206.167 37.9345 207.414 37.9345Z" stroke="#302219" stroke-width="28.2561" mask="url(#path-1-outside-1_453_554)"/>
<path d="M138.99 79.5037C136.426 79.5037 132.995 79.3304 131.713 78.9492C130.881 78.7067 130.362 78.2908 130.362 77.9097C130.362 77.3899 131.401 76.2117 132.025 75.1028C133.966 71.7068 135.906 62.3505 135.906 58.4694C135.906 55.8011 135.109 55.0388 135.109 54.415C135.109 52.8556 139.961 52.821 142.144 52.821C146.371 52.821 148.589 52.8903 149.837 53.4101C151.431 54.1031 151.604 56.2863 151.604 57.7417C151.604 59.0585 151.119 60.2367 150.426 60.2367C149.802 60.2367 149.317 59.5436 148.658 58.5734C146.926 56.0091 146.094 55.0388 144.361 55.0388C141.589 55.0388 140.48 57.6031 140.48 60.202C140.48 62.6278 141.416 64.6723 143.53 64.6723C144.569 64.6723 145.505 64.0832 146.233 62.7317C146.787 61.6921 146.96 61.4149 147.515 61.4149C148.45 61.4149 148.866 63.2515 148.866 65.7119C148.866 68.5187 148.624 69.7662 147.688 69.7662C147.203 69.7662 146.891 69.2811 146.337 68.4148C145.748 67.5138 144.881 66.8901 143.322 66.8901C140.03 66.8901 138.366 69.9049 138.366 73.1969C138.366 75.5879 139.441 77.182 141.624 77.182C142.871 77.182 144.223 76.6622 146.406 73.4741C147.203 72.2959 147.931 71.4989 148.554 71.4989C149.213 71.4989 149.594 72.3306 149.594 73.5781C149.594 75.7612 148.901 78.0136 147.238 78.9146C146.233 79.4344 143.911 79.5037 138.99 79.5037Z" stroke="#302219" stroke-width="28.2561" mask="url(#path-1-outside-1_453_554)"/>
<path d="M152.956 79.5037C151.709 79.5037 150.981 78.5334 150.981 76.8354C150.981 71.4642 155.244 65.9198 155.244 58.5734C155.244 55.5586 153.996 54.7269 153.996 53.9645C153.996 52.9596 156.179 52.1279 157.912 52.1279C159.852 52.1279 160.823 53.1675 160.823 54.5883C160.823 59.1971 156.318 64.8109 156.318 69.9742C156.318 73.2662 158.362 74.2365 158.362 75.0681C158.362 76.7661 154.897 79.5037 152.956 79.5037Z" stroke="#302219" stroke-width="28.2561" mask="url(#path-1-outside-1_453_554)"/>
<path d="M188.152 83.5581C180.217 83.5581 167.395 78.5681 167.395 67.8603C167.395 59.7862 173.806 52.821 181.533 52.821C188.499 52.821 193.246 57.0833 193.246 63.1129C193.246 70.5633 187.32 74.2365 186.108 76.8701C185.865 77.3552 185.761 77.8404 185.761 78.2562C185.761 79.3997 186.593 80.2314 187.91 80.6126C189.919 81.2017 190.82 81.5136 190.82 82.3106C190.82 83.3502 189.954 83.5581 188.152 83.5581ZM178.969 77.2166C184.41 77.2166 187.182 70.286 187.182 63.3208C187.182 58.8506 186.038 55.4546 181.707 55.4546C176.162 55.4546 173.286 62.3159 173.286 69.3851C173.286 74.2711 174.915 77.2166 178.969 77.2166Z" stroke="#302219" stroke-width="28.2561" mask="url(#path-1-outside-1_453_554)"/>
<path d="M199.184 79.5037C196.481 79.5037 193.05 78.5334 193.05 73.7167C193.05 68.8999 196.827 62.5238 203.238 62.5238C205.768 62.5238 209.233 63.4594 209.233 68.1722C209.233 72.3652 206.357 79.5037 199.184 79.5037ZM199.981 77.078C202.51 77.078 203.931 71.187 203.931 67.9296C203.931 66.197 203.55 64.9495 202.337 64.9495C199.807 64.9495 198.387 70.5286 198.387 73.9246C198.387 75.5186 198.664 77.078 199.981 77.078Z" stroke="#302219" stroke-width="28.2561" mask="url(#path-1-outside-1_453_554)"/>
<path d="M211.773 79.5037C210.491 79.5037 209.555 78.6374 209.555 77.3899C209.555 74.4444 212.847 73.5087 212.847 69.7662C212.847 66.4742 211.496 65.7465 211.496 64.395C211.496 63.5287 213.783 62.5238 215.1 62.5238C217.006 62.5238 216.451 65.0535 217.283 65.0535C218.08 65.0535 218.669 62.7664 220.991 62.7664C222.481 62.7664 223.624 63.7713 223.624 65.2267C223.624 66.6821 222.516 67.9296 221.06 67.9296C219.778 67.9296 219.57 67.0287 218.427 67.0287C216.694 67.0287 216.07 69.2811 216.07 71.2563C216.07 73.8206 217.699 74.1672 217.699 75.1374C217.699 76.974 213.783 79.5037 211.773 79.5037Z" stroke="#302219" stroke-width="28.2561" mask="url(#path-1-outside-1_453_554)"/>
<path d="M226.31 79.5037C223.953 79.5037 222.082 77.7364 222.082 74.3058C222.082 68.9692 226.691 62.5238 232.998 62.5238C235.666 62.5238 237.711 63.6673 237.711 65.6426C237.711 66.3356 237.468 67.1673 237.191 67.9989C236.567 70.0088 235.909 72.1919 236.671 73.4741C236.879 73.8206 237.225 74.1672 237.815 74.4444C238.334 74.6869 238.612 74.9295 238.612 75.3107C238.612 76.5929 236.186 79.5037 233.864 79.5037C231.473 79.5037 232.547 77.078 231.404 77.078C230.226 77.078 229.082 79.5037 226.31 79.5037ZM228.666 75.9345C231.369 75.9345 233.344 70.5286 233.344 67.1673C233.344 65.7812 232.928 64.7762 231.716 64.7762C229.047 64.7762 227.141 69.8702 227.141 73.4394C227.141 74.7909 227.419 75.9345 228.666 75.9345Z" stroke="#302219" stroke-width="28.2561" mask="url(#path-1-outside-1_453_554)"/>
<path d="M244.531 79.5037C241.689 79.5037 239.09 78.2215 239.09 76.3156C239.09 75.2067 239.991 74.1325 241.343 74.1325C243.664 74.1325 243.491 77.4245 245.709 77.4245C246.679 77.4245 247.268 76.8008 247.268 76.0038C247.268 73.4741 241.135 72.1226 241.135 67.6871C241.135 64.5337 244.15 62.5238 247.927 62.5238C250.248 62.5238 252.813 63.2515 252.813 65.1921C252.813 66.3356 251.912 67.1673 250.699 67.1673C248.585 67.1673 248.897 64.6376 246.783 64.6376C245.709 64.6376 245.154 65.2267 245.154 65.9891C245.154 68.4494 251.6 69.5237 251.6 73.9939C251.6 77.1127 248.446 79.5037 244.531 79.5037Z" stroke="#302219" stroke-width="28.2561" mask="url(#path-1-outside-1_453_554)"/>
<path d="M254.501 79.5037C253.253 79.5037 252.422 78.8799 252.422 76.974C252.422 74.1672 255.021 70.9098 256.199 67.3752C257.308 64.0832 257.966 58.7813 256.927 56.1823C256.442 54.9695 255.991 54.4497 255.991 53.9645C255.991 52.9596 258.174 52.1279 260.011 52.1279C261.951 52.1279 262.818 53.1675 262.818 54.4843C262.818 57.014 260.392 60.41 260.392 63.2515C260.392 64.1525 260.704 64.5337 261.536 64.5337C263.441 64.5337 264.377 62.5238 267.115 62.5238C268.778 62.5238 269.818 63.5287 269.818 64.9495C269.818 67.3059 268.224 68.4494 268.224 70.6672C268.224 73.786 269.991 74.0979 269.991 74.9295C269.991 76.6275 266.179 79.5037 264.1 79.5037C262.61 79.5037 261.882 78.672 261.882 77.2859C261.882 74.8602 264.897 72.8157 264.897 69.0385C264.897 67.3752 263.961 66.4396 262.436 66.4396C260.253 66.4396 258.486 68.4841 258.486 70.9098C258.486 73.6127 260.427 74.0979 260.427 74.9295C260.427 76.6275 256.58 79.5037 254.501 79.5037Z" stroke="#302219" stroke-width="28.2561" mask="url(#path-1-outside-1_453_554)"/>
<path d="M268.575 87.1273C266.6 87.1273 264.763 86.0877 264.763 84.0779C264.763 82.7957 265.733 81.5829 267.362 81.5829C269.58 81.5829 269.753 83.5927 271.209 83.5927C273.357 83.5927 274.085 80.474 274.085 77.1473C274.085 73.0929 272.595 67.2366 271.694 65.0881C271.486 64.5683 271.278 64.0485 271.278 63.702C271.278 63.0089 272.456 62.5931 274.362 62.5931C276.164 62.5931 277.689 63.3208 277.689 65.5732C277.689 67.5831 277.377 70.4246 277.377 72.5038C277.377 74.3058 277.723 75.4147 278.763 75.4147C280.669 75.4147 281.639 72.5038 281.639 69.9742C281.639 67.5485 280.392 66.5089 280.392 65.0188C280.392 63.5634 281.674 62.5238 283.198 62.5238C284.688 62.5238 286.075 63.4941 286.075 65.5386C286.075 72.2612 279.005 81.5136 273.149 85.4986C271.624 86.5036 270.134 87.1273 268.575 87.1273Z" stroke="#302219" stroke-width="28.2561" mask="url(#path-1-outside-1_453_554)"/>
<path d="M19.7366 47.1393C22.2004 49.602 24.7059 52.0236 27.2617 54.3863C28.264 55.3168 29.2783 56.235 30.3006 57.1449C36.3904 62.9204 42.805 67.4293 50.1778 71.1717C51.3845 71.7701 52.5993 72.3317 53.8341 72.8441C54.6559 73.1884 55.4858 73.5122 56.3237 73.8155C57.1616 74.1189 58.0076 74.4017 58.8575 74.6599C62.5379 75.6437 66.4788 76.3323 70.4919 76.6151C71.831 76.7094 73.174 76.7586 74.5211 76.7586C86.4121 76.5496 100.043 73.2704 105.656 61.7932C111.67 48.6764 99.6422 36.7893 88.7374 31.5508C87.659 31.0303 86.5685 30.5548 85.462 30.1285C82.1464 28.8496 78.7186 27.9929 75.3029 27.6363C73.9358 27.4723 72.5646 27.374 71.1895 27.3371C67.0682 27.2346 62.9348 27.7183 58.9497 28.8332C56.6284 29.4808 53.3209 29.8661 52.7596 27.2469C52.467 25.8901 53.1686 24.4965 54.3793 23.8611C66.8196 17.3068 82.5714 18.0611 94.4183 25.6278C97.798 27.788 100.833 30.481 103.435 33.5634C104.301 34.5923 105.123 35.6621 105.888 36.7688C109.264 42.5361 112.471 48.6846 113.189 55.4971C113.369 56.8416 113.482 58.1943 113.526 59.551L125.361 47.2377C116.713 36.9 106.658 27.4027 94.4584 21.9674C81.5691 16.2247 65.9536 15.5402 53.9183 23.1971C52.6033 24.0333 51.6571 25.4146 51.4406 26.9846C51.168 28.9931 52.1903 30.2965 53.6015 30.9483L53.6256 30.9606C54.7802 31.5426 56.1113 31.5877 57.314 31.1204C64.7188 28.2388 73.2221 27.3002 80.5869 29.858C81.6894 30.2433 82.7678 30.7023 83.8102 31.2475C95.6331 37.6173 100.043 53.1935 92.0249 65.0806C91.9888 65.138 91.9527 65.1913 91.9166 65.2486C90.2729 67.7203 86.6006 67.3432 85.4259 64.6092C82.6235 58.0795 82.9362 50.4636 85.7867 44.188L88.5798 38.0458C88.6833 37.8182 88.46 37.5789 88.2325 37.6737L82.0983 40.2284C81.0559 40.6629 79.9775 41.0236 78.879 41.3105C77.7805 41.5975 76.658 41.8065 75.5274 41.9377C74.2364 42.1098 72.9776 42.1508 71.7468 42.0729C70.516 41.9992 69.3133 41.8065 68.1386 41.5196C60.842 39.5849 51.4487 32.6658 45.9562 28.2306C43.3142 26.0951 39.5215 26.3451 37.1722 28.8127L19.7366 47.1393ZM50.627 66.9913C49.5485 66.024 48.5302 64.9992 47.5841 63.9171C46.694 62.8596 45.8722 61.7487 45.1225 60.5969C44.9581 60.3428 44.7937 60.0886 44.6374 59.8304C44.1803 59.0926 43.7513 58.3425 43.3424 57.5801C42.9255 56.8013 42.5326 56.0102 42.1597 55.2067C41.7829 54.391 41.4341 53.5631 41.1053 52.7269C40.7766 51.8784 40.4679 51.0217 40.1912 50.1568C39.9106 49.2837 39.654 48.4024 39.4255 47.5129C39.197 46.6194 38.9965 45.7176 38.8241 44.8117C38.6517 43.9017 38.5074 42.9877 38.3952 42.0654C38.2829 41.1472 38.1987 40.2208 38.1506 39.2945C38.1025 38.3681 38.0825 37.4417 38.0985 36.5153C38.1145 35.589 38.1666 34.6626 38.2548 33.7403C38.343 32.814 38.4753 31.8917 38.6317 30.9735C39.221 28.6002 42.1717 27.8706 43.7513 29.711C49.312 36.1915 55.6664 41.9137 58.4407 50.0174C58.7414 51.1938 58.9539 52.3948 59.0501 53.6286C59.1463 54.8624 59.1303 56.129 58.982 57.4366C58.8216 58.5638 58.581 59.6828 58.2643 60.7773C57.9476 61.8717 57.5507 62.9497 57.0736 63.995L55.8508 66.6798C55.041 68.467 52.7678 68.9671 51.3286 67.6554C51.092 67.4381 50.8595 67.2209 50.631 66.9954L50.627 66.9913ZM74.1322 75.1272C72.8052 75.1641 71.4661 75.1067 70.1231 74.951C67.3368 74.6353 64.5544 73.918 61.9084 72.8482C59.503 71.8767 59.519 68.3803 61.9124 67.3842L62.0287 67.335C68.2949 64.724 75.4632 65.0478 81.7054 68.2286C83.9385 69.364 83.8182 72.7006 81.4889 73.6147C79.1596 74.5288 76.6539 75.0534 74.1282 75.1272H74.1322Z" fill="#9DC3C6"/>
<path d="M138.505 41.5037C135.144 41.5037 131.54 40.4988 130.881 38.3849C130.674 37.7612 130.5 36.8602 130.5 35.6474C130.5 33.9494 130.881 32.8405 131.852 32.8405C132.614 32.8405 134.035 34.7117 135.04 36.1672C136.565 38.3849 137.812 39.078 139.441 39.078C141.659 39.078 143.287 37.8305 143.287 35.682C143.287 33.7415 141.97 32.2514 140.411 30.8306L138.817 29.3752C136.946 27.6772 135.04 25.3901 135.04 22.306C135.04 17.8704 139.545 14.821 144.465 14.821C149.837 14.821 151.327 16.7269 151.327 20.3308C151.327 21.4397 150.98 22.2714 150.183 22.2714C149.213 22.2714 148.035 20.8852 147.238 19.8457C146.441 18.8061 145.089 17.2467 143.218 17.2467C141.277 17.2467 139.891 18.4942 139.891 20.1575C139.891 21.7862 141.589 23.7268 143.218 25.2515L144.708 26.6723C147.134 28.994 148.589 30.9692 148.589 33.4989C148.589 37.6919 144.916 41.5037 138.505 41.5037Z" fill="#9DC3C6"/>
<path d="M154.161 41.5037C151.805 41.5037 149.934 39.7364 149.934 36.3058C149.934 30.9692 154.543 24.5238 160.849 24.5238C163.518 24.5238 165.562 25.6673 165.562 27.6425C165.562 28.3356 165.32 29.1673 165.042 29.9989C164.419 32.0088 163.76 34.1919 164.523 35.4741C164.731 35.8206 165.077 36.1672 165.666 36.4444C166.186 36.6869 166.463 36.9295 166.463 37.3107C166.463 38.5929 164.037 41.5037 161.716 41.5037C159.325 41.5037 160.399 39.078 159.255 39.078C158.077 39.078 156.934 41.5037 154.161 41.5037ZM156.518 37.9345C159.221 37.9345 161.196 32.5286 161.196 29.1673C161.196 27.7812 160.78 26.7762 159.567 26.7762C156.899 26.7762 154.993 31.8702 154.993 35.4394C154.993 36.7909 155.27 37.9345 156.518 37.9345Z" fill="#9DC3C6"/>
<path d="M168.929 41.5037C167.682 41.5037 166.954 40.5334 166.954 38.8354C166.954 33.4642 171.216 27.9198 171.216 20.5734C171.216 17.5586 169.969 16.7269 169.969 15.9645C169.969 14.9596 172.152 14.1279 173.885 14.1279C175.825 14.1279 176.795 15.1675 176.795 16.5883C176.795 21.1971 172.291 26.8109 172.291 31.9742C172.291 35.2662 174.335 36.2365 174.335 37.0681C174.335 38.7661 170.87 41.5037 168.929 41.5037Z" fill="#9DC3C6"/>
<path d="M177.153 41.5037C175.871 41.5037 174.936 40.6027 174.936 39.3206C174.936 36.479 178.158 35.4394 178.158 31.8355C178.158 30.0336 177.292 28.2316 176.738 27.0881C176.668 26.9495 176.599 26.8109 176.599 26.6723C176.599 25.5287 179.059 24.5238 180.896 24.5238C183.183 24.5238 182.282 26.4644 184.084 26.4644C185.99 26.4644 186.475 24.5238 188.901 24.5238C191.049 24.5238 191.049 26.4297 192.47 26.4297C193.821 26.4297 194.618 24.5238 196.732 24.5238C198.465 24.5238 199.504 25.5287 199.504 26.9495C199.504 29.3059 197.91 30.4494 197.91 32.6672C197.91 35.786 199.678 36.0979 199.678 36.9295C199.678 38.6275 196.004 41.5037 193.925 41.5037C192.643 41.5037 191.881 40.672 191.881 39.2859C191.881 36.8602 194.722 34.8157 194.722 30.8653C194.722 29.3752 193.925 28.4049 192.539 28.4049C190.876 28.4049 189.628 30.3801 189.628 32.6672C189.628 35.786 191.049 36.0979 191.049 36.9295C191.049 38.6275 187.584 41.5037 185.609 41.5037C184.119 41.5037 183.564 40.672 183.564 39.2859C183.564 36.8602 186.406 34.8157 186.406 30.8653C186.406 29.3752 185.539 28.4396 184.326 28.4396C182.455 28.4396 181.312 30.5187 181.312 33.0137C181.312 35.7167 182.628 36.0979 182.628 36.9295C182.628 38.6275 179.233 41.5037 177.153 41.5037Z" fill="#9DC3C6"/>
<path d="M205.058 41.5037C202.701 41.5037 200.83 39.7364 200.83 36.3058C200.83 30.9692 205.439 24.5238 211.746 24.5238C214.414 24.5238 216.459 25.6673 216.459 27.6425C216.459 28.3356 216.216 29.1673 215.939 29.9989C215.315 32.0088 214.657 34.1919 215.419 35.4741C215.627 35.8206 215.973 36.1672 216.563 36.4444C217.082 36.6869 217.36 36.9295 217.36 37.3107C217.36 38.5929 214.934 41.5037 212.612 41.5037C210.221 41.5037 211.295 39.078 210.152 39.078C208.974 39.078 207.83 41.5037 205.058 41.5037ZM207.414 37.9345C210.117 37.9345 212.092 32.5286 212.092 29.1673C212.092 27.7812 211.677 26.7762 210.464 26.7762C207.795 26.7762 205.889 31.8702 205.889 35.4394C205.889 36.7909 206.167 37.9345 207.414 37.9345Z" fill="#9DC3C6"/>
<path d="M138.99 79.5037C136.426 79.5037 132.995 79.3304 131.713 78.9492C130.881 78.7067 130.362 78.2908 130.362 77.9097C130.362 77.3899 131.401 76.2117 132.025 75.1028C133.966 71.7068 135.906 62.3505 135.906 58.4694C135.906 55.8011 135.109 55.0388 135.109 54.415C135.109 52.8556 139.961 52.821 142.144 52.821C146.371 52.821 148.589 52.8903 149.837 53.4101C151.431 54.1031 151.604 56.2863 151.604 57.7417C151.604 59.0585 151.119 60.2367 150.426 60.2367C149.802 60.2367 149.317 59.5436 148.658 58.5734C146.926 56.0091 146.094 55.0388 144.361 55.0388C141.589 55.0388 140.48 57.6031 140.48 60.202C140.48 62.6278 141.416 64.6723 143.53 64.6723C144.569 64.6723 145.505 64.0832 146.233 62.7317C146.787 61.6921 146.96 61.4149 147.515 61.4149C148.45 61.4149 148.866 63.2515 148.866 65.7119C148.866 68.5187 148.624 69.7662 147.688 69.7662C147.203 69.7662 146.891 69.2811 146.337 68.4148C145.748 67.5138 144.881 66.8901 143.322 66.8901C140.03 66.8901 138.366 69.9049 138.366 73.1969C138.366 75.5879 139.441 77.182 141.624 77.182C142.871 77.182 144.223 76.6622 146.406 73.4741C147.203 72.2959 147.931 71.4989 148.554 71.4989C149.213 71.4989 149.594 72.3306 149.594 73.5781C149.594 75.7612 148.901 78.0136 147.238 78.9146C146.233 79.4344 143.911 79.5037 138.99 79.5037Z" fill="#9DC3C6"/>
<path d="M152.956 79.5037C151.709 79.5037 150.981 78.5334 150.981 76.8354C150.981 71.4642 155.244 65.9198 155.244 58.5734C155.244 55.5586 153.996 54.7269 153.996 53.9645C153.996 52.9596 156.179 52.1279 157.912 52.1279C159.852 52.1279 160.823 53.1675 160.823 54.5883C160.823 59.1971 156.318 64.8109 156.318 69.9742C156.318 73.2662 158.362 74.2365 158.362 75.0681C158.362 76.7661 154.897 79.5037 152.956 79.5037Z" fill="#9DC3C6"/>
<path d="M188.152 83.5581C180.217 83.5581 167.395 78.5681 167.395 67.8603C167.395 59.7862 173.806 52.821 181.533 52.821C188.499 52.821 193.246 57.0833 193.246 63.1129C193.246 70.5633 187.32 74.2365 186.108 76.8701C185.865 77.3552 185.761 77.8404 185.761 78.2562C185.761 79.3997 186.593 80.2314 187.91 80.6126C189.919 81.2017 190.82 81.5136 190.82 82.3106C190.82 83.3502 189.954 83.5581 188.152 83.5581ZM178.969 77.2166C184.41 77.2166 187.182 70.286 187.182 63.3208C187.182 58.8506 186.038 55.4546 181.707 55.4546C176.162 55.4546 173.286 62.3159 173.286 69.3851C173.286 74.2711 174.915 77.2166 178.969 77.2166Z" fill="#9DC3C6"/>
<path d="M199.184 79.5037C196.481 79.5037 193.05 78.5334 193.05 73.7167C193.05 68.8999 196.827 62.5238 203.238 62.5238C205.768 62.5238 209.233 63.4594 209.233 68.1722C209.233 72.3652 206.357 79.5037 199.184 79.5037ZM199.981 77.078C202.51 77.078 203.931 71.187 203.931 67.9296C203.931 66.197 203.55 64.9495 202.337 64.9495C199.807 64.9495 198.387 70.5286 198.387 73.9246C198.387 75.5186 198.664 77.078 199.981 77.078Z" fill="#9DC3C6"/>
<path d="M211.773 79.5037C210.491 79.5037 209.555 78.6374 209.555 77.3899C209.555 74.4444 212.847 73.5087 212.847 69.7662C212.847 66.4742 211.496 65.7465 211.496 64.395C211.496 63.5287 213.783 62.5238 215.1 62.5238C217.006 62.5238 216.451 65.0535 217.283 65.0535C218.08 65.0535 218.669 62.7664 220.991 62.7664C222.481 62.7664 223.624 63.7713 223.624 65.2267C223.624 66.6821 222.516 67.9296 221.06 67.9296C219.778 67.9296 219.57 67.0287 218.427 67.0287C216.694 67.0287 216.07 69.2811 216.07 71.2563C216.07 73.8206 217.699 74.1672 217.699 75.1374C217.699 76.974 213.783 79.5037 211.773 79.5037Z" fill="#9DC3C6"/>
<path d="M226.31 79.5037C223.953 79.5037 222.082 77.7364 222.082 74.3058C222.082 68.9692 226.691 62.5238 232.998 62.5238C235.666 62.5238 237.711 63.6673 237.711 65.6426C237.711 66.3356 237.468 67.1673 237.191 67.9989C236.567 70.0088 235.909 72.1919 236.671 73.4741C236.879 73.8206 237.225 74.1672 237.815 74.4444C238.334 74.6869 238.612 74.9295 238.612 75.3107C238.612 76.5929 236.186 79.5037 233.864 79.5037C231.473 79.5037 232.547 77.078 231.404 77.078C230.226 77.078 229.082 79.5037 226.31 79.5037ZM228.666 75.9345C231.369 75.9345 233.344 70.5286 233.344 67.1673C233.344 65.7812 232.928 64.7762 231.716 64.7762C229.047 64.7762 227.141 69.8702 227.141 73.4394C227.141 74.7909 227.419 75.9345 228.666 75.9345Z" fill="#9DC3C6"/>
<path d="M244.531 79.5037C241.689 79.5037 239.09 78.2215 239.09 76.3156C239.09 75.2067 239.991 74.1325 241.343 74.1325C243.664 74.1325 243.491 77.4245 245.709 77.4245C246.679 77.4245 247.268 76.8008 247.268 76.0038C247.268 73.4741 241.135 72.1226 241.135 67.6871C241.135 64.5337 244.15 62.5238 247.927 62.5238C250.248 62.5238 252.813 63.2515 252.813 65.1921C252.813 66.3356 251.912 67.1673 250.699 67.1673C248.585 67.1673 248.897 64.6376 246.783 64.6376C245.709 64.6376 245.154 65.2267 245.154 65.9891C245.154 68.4494 251.6 69.5237 251.6 73.9939C251.6 77.1127 248.446 79.5037 244.531 79.5037Z" fill="#9DC3C6"/>
<path d="M254.501 79.5037C253.253 79.5037 252.422 78.8799 252.422 76.974C252.422 74.1672 255.021 70.9098 256.199 67.3752C257.308 64.0832 257.966 58.7813 256.927 56.1823C256.442 54.9695 255.991 54.4497 255.991 53.9645C255.991 52.9596 258.174 52.1279 260.011 52.1279C261.951 52.1279 262.818 53.1675 262.818 54.4843C262.818 57.014 260.392 60.41 260.392 63.2515C260.392 64.1525 260.704 64.5337 261.536 64.5337C263.441 64.5337 264.377 62.5238 267.115 62.5238C268.778 62.5238 269.818 63.5287 269.818 64.9495C269.818 67.3059 268.224 68.4494 268.224 70.6672C268.224 73.786 269.991 74.0979 269.991 74.9295C269.991 76.6275 266.179 79.5037 264.1 79.5037C262.61 79.5037 261.882 78.672 261.882 77.2859C261.882 74.8602 264.897 72.8157 264.897 69.0385C264.897 67.3752 263.961 66.4396 262.436 66.4396C260.253 66.4396 258.486 68.4841 258.486 70.9098C258.486 73.6127 260.427 74.0979 260.427 74.9295C260.427 76.6275 256.58 79.5037 254.501 79.5037Z" fill="#9DC3C6"/>
<path d="M268.575 87.1273C266.6 87.1273 264.763 86.0877 264.763 84.0779C264.763 82.7957 265.733 81.5829 267.362 81.5829C269.58 81.5829 269.753 83.5927 271.209 83.5927C273.357 83.5927 274.085 80.474 274.085 77.1473C274.085 73.0929 272.595 67.2366 271.694 65.0881C271.486 64.5683 271.278 64.0485 271.278 63.702C271.278 63.0089 272.456 62.5931 274.362 62.5931C276.164 62.5931 277.689 63.3208 277.689 65.5732C277.689 67.5831 277.377 70.4246 277.377 72.5038C277.377 74.3058 277.723 75.4147 278.763 75.4147C280.669 75.4147 281.639 72.5038 281.639 69.9742C281.639 67.5485 280.392 66.5089 280.392 65.0188C280.392 63.5634 281.674 62.5238 283.198 62.5238C284.688 62.5238 286.075 63.4941 286.075 65.5386C286.075 72.2612 279.005 81.5136 273.149 85.4986C271.624 86.5036 270.134 87.1273 268.575 87.1273Z" fill="#9DC3C6"/>
</svg>
